<svg width="209" height="217" viewBox="0 0 209 217" fill="none" xmlns="http://www.w3.org/2000/svg">
<path d="M166.008 76.255C163.72 72.8619 161.581 69.9005 159.716 67.344C157.655 64.4983 155.751 61.9679 154.146 59.8809C152.541 57.794 151.397 56.4334 150.248 55.1891C149.2 53.9924 148.044 52.8943 146.794 51.9088C145.554 50.928 144.21 50.0852 142.786 49.3952C141.426 48.755 139.971 48.3348 138.477 48.1503C136.941 47.9653 135.383 48.0654 133.88 48.4454C132.338 48.8424 130.876 49.5057 129.561 50.4052C127.277 51.9554 125.492 54.134 124.425 56.6745C124.074 56.154 123.561 55.7704 123.133 55.3862C122.142 54.4851 121.02 53.7383 119.805 53.1708C118.596 52.6014 117.296 52.2446 115.963 52.1161C114.627 52.0011 113.28 52.1301 111.989 52.4967C110.631 52.866 109.343 53.4593 108.18 54.2521C106.985 55.0254 105.913 55.9751 105.002 57.0686C104.081 58.2159 103.336 59.4937 102.792 60.8594C102.639 61.2863 102.509 61.7208 102.401 62.1611C101.766 61.6296 101.092 61.1469 100.383 60.7171C99.007 59.8852 97.4628 59.366 95.8599 59.1961C94.5752 59.0565 93.2754 59.1192 92.0081 59.3819C90.7195 59.6489 89.4755 60.1006 88.3149 60.723C87.1813 61.2911 86.1256 62.0031 85.1742 62.8414C84.2284 63.7018 83.4016 64.684 82.7157 65.7619C82.0057 66.8556 81.4594 68.0463 81.0941 69.296L78.0252 64.7462C76.4518 62.4135 75.5285 61.0447 74.5792 59.6374C73.4349 57.9408 72.2646 56.2057 71.2373 54.6827C70.21 53.1597 68.9167 51.4514 67.7343 50.033C66.6708 48.6162 65.4865 47.2941 64.1945 46.0813C63.3613 45.3859 62.4643 44.7701 61.5153 44.242C60.985 43.9481 60.4348 43.6913 59.8686 43.4734C58.2612 42.8861 56.5476 42.638 54.8358 42.7447C53.1661 42.8372 51.5278 43.2472 50.0092 43.9527C48.5032 44.6985 47.1317 45.6899 45.9514 46.886C44.7835 48.0987 43.8169 49.4893 43.0884 51.005C42.3004 52.6332 41.8224 54.392 41.6787 56.1914C41.5495 58.1334 41.7565 60.0813 42.2906 61.9496C42.8682 63.9808 43.6324 65.9537 44.5734 67.8431C45.4981 69.7158 46.611 71.7421 47.8083 73.8517C49.0056 75.9614 50.157 77.8775 51.5231 80.1537C52.8892 82.43 54.1771 84.5066 55.6016 86.8276C57.0261 89.1486 58.2952 91.4902 59.7848 93.9076C61.2743 96.325 62.6985 98.562 64.0904 100.793C64.3765 101.217 64.6496 101.622 68.1812 107.234C69.5856 109.316 70.8086 111.38 72.0832 113.354C73.3578 115.327 74.957 117.614 76.1924 119.446C76.7906 120.332 77.3627 121.181 77.8699 121.933C76.8975 121.495 75.9184 121.005 75.0562 120.605C72.9058 119.498 70.6914 118.519 68.4244 117.673C67.0893 117.199 65.5731 116.791 63.8105 116.269C62.3934 115.925 60.9543 115.678 59.5028 115.528C57.8311 115.35 56.1437 115.359 54.4722 115.555C52.8495 115.718 51.2546 116.096 49.7295 116.678C48.2545 117.227 46.8654 117.984 45.6051 118.927C44.2879 119.789 43.106 120.842 42.0982 122.05C41.2284 123.177 40.5434 124.435 40.0693 125.775C39.5966 127.118 39.3469 128.527 39.33 129.948C39.2658 131.348 39.4205 132.748 39.7885 134.099C40.1608 135.416 40.7226 136.672 41.4566 137.826C42.2683 139.067 43.245 140.191 44.3602 141.169C45.6404 142.239 47.0171 143.188 48.4731 144.005C51.1513 145.508 54.5483 147.032 58.1723 148.683L59.9356 149.457C62.2046 150.479 64.3634 151.463 66.224 152.34C68.0847 153.217 70.3864 154.329 72.6816 155.474C75.34 156.822 78.1996 158.343 81.0786 159.852C82.8553 160.813 84.6384 161.742 86.0521 162.5C88.3605 163.748 90.5844 164.828 92.912 165.979C95.2396 167.13 97.3921 168.146 99.8944 169.264C101.36 169.93 102.15 170.266 102.954 170.622C106.263 171.995 109.482 173.571 112.595 175.339C115.336 177.087 117.863 179.148 120.123 181.481C121.253 182.57 122.181 183.487 123.005 184.165C123.997 185.015 125.112 185.71 126.313 186.226C127.573 186.747 128.924 187.017 130.291 187.021C131.662 187.016 133.027 186.814 134.342 186.42C135.718 186.012 137.06 185.5 138.359 184.889C139.658 184.265 141.042 183.556 142.548 182.736C144.054 181.917 145.619 181.058 147.099 180.2L151.417 177.652L152.27 177.077C154.092 175.847 156.264 174.635 158.623 173.156C160.562 171.848 162.501 170.541 164.439 169.233C166.378 167.925 168.433 166.539 170.255 165.31C172.078 164.081 174.177 162.468 175.915 161.156C177.653 159.843 179.191 158.61 180.831 157.279C182.472 155.948 184.081 154.61 185.275 153.58C186.47 152.55 188.117 151.102 189.312 149.904C190.566 148.685 191.675 147.326 192.615 145.852C193.551 144.383 194.138 142.72 194.33 140.993C194.51 139.366 194.36 137.722 193.889 136.157C193.325 134.427 192.61 132.751 191.751 131.148C191.322 130.512 191.068 129.758 190.689 128.863C190.289 128.031 189.953 127.17 189.685 126.286C189.371 125.152 189.063 123.901 188.846 122.617C188.688 121.882 188.754 122.146 188.55 121.133C187.975 117.796 187.2 114.497 186.23 111.254C185.506 108.982 184.63 106.761 183.609 104.607C182.619 102.47 181.154 99.839 179.339 96.7717C177.524 93.7043 175.69 90.818 173.499 87.4436C171.008 83.6257 168.427 79.7569 166.008 76.255ZM166.83 92.0259C168.989 95.2262 170.92 98.383 172.521 101.09C174.121 103.798 175.403 106.158 176.426 108.302C177.287 110.117 178.03 111.987 178.65 113.898C179.538 116.811 180.255 119.774 180.798 122.771L181.088 124.287C181.416 125.945 181.711 127.345 182.071 128.589C182.439 129.928 182.899 131.239 183.448 132.513C183.742 133.24 184.224 134.206 184.705 135.171C185.335 136.355 185.874 137.587 186.315 138.854C186.481 139.341 186.551 139.856 186.52 140.37C186.442 140.862 186.258 141.33 185.98 141.744C185.372 142.659 184.665 143.503 183.87 144.262C182.824 145.304 181.603 146.38 180.383 147.455C178.826 148.786 177.412 149.992 176.152 151.01C174.892 152.028 173.2 153.366 171.404 154.718C169.608 156.07 167.811 157.421 165.996 158.702C164.18 159.983 162.118 161.318 160.296 162.547L154.654 166.184C152.715 167.492 150.498 168.763 148.456 170L147.041 170.955C145.897 171.726 144.642 172.376 143.434 173.051L139.083 175.509C137.751 176.211 136.497 176.86 135.385 177.386C134.462 177.831 133.506 178.203 132.526 178.501C131.931 178.687 131.312 178.783 130.689 178.787C130.306 178.775 129.929 178.697 129.574 178.556C129.093 178.33 128.648 178.035 128.251 177.682C127.485 177.048 126.739 176.318 125.836 175.44C123.146 172.669 120.136 170.227 116.868 168.165C113.409 166.212 109.825 164.488 106.138 163.005C104.919 162.452 103.655 161.875 103.156 161.678C101.042 160.72 98.7795 159.665 96.4065 158.489C94.0335 157.313 92.0491 156.211 89.7151 155.092L84.8 152.489C81.9534 150.987 79.1392 149.491 76.1633 148.048C74.0236 146.967 71.858 145.847 69.5178 144.845C67.1777 143.843 65.0768 142.735 63.1903 141.904L61.4464 141.117C57.9523 139.575 54.6914 138.128 52.4411 136.841C51.4241 136.277 50.462 135.621 49.5673 134.88C49.0116 134.405 48.5262 133.855 48.1254 133.244C47.8153 132.767 47.5781 132.246 47.4217 131.699C47.2729 131.168 47.2059 130.618 47.2229 130.066C47.2303 129.546 47.3207 129.031 47.4905 128.539C47.687 128.018 47.9702 127.533 48.3281 127.105C48.8124 126.474 49.3919 125.922 50.0457 125.469C50.7472 124.962 51.5123 124.55 52.3213 124.243C53.2296 123.9 54.1778 123.676 55.1423 123.574C56.2662 123.455 57.3988 123.453 58.522 123.567C59.6159 123.693 60.6986 123.901 61.7611 124.187C63.0548 124.505 64.3309 124.889 65.5843 125.339C67.5889 126.098 69.5496 126.966 71.4576 127.941L71.5227 128.037C72.8128 128.654 74.3624 129.404 76.0415 130.178C77.7206 130.953 79.1987 131.639 80.4951 132.139C81.6095 132.615 82.781 132.947 83.9812 133.126C84.8121 133.264 85.6661 133.181 86.4566 132.884C87.2471 132.587 87.946 132.088 88.4827 131.436C88.9603 130.848 89.305 130.165 89.4929 129.432C89.6809 128.7 89.7077 127.937 89.5714 127.195C89.4293 126.327 89.1722 125.481 88.8067 124.682C88.3886 123.874 87.926 123.091 87.421 122.334C86.8879 121.544 86.2956 120.457 85.4047 119.094C84.5138 117.732 83.6102 116.434 82.5569 114.872C81.2565 112.944 79.8521 110.862 78.5127 108.877C77.1734 106.891 76.0089 104.955 74.6627 102.834C73.7134 101.427 73.0632 100.463 70.6107 96.3668C69.1413 94.1883 67.7426 91.8218 66.2857 89.4946C64.8288 87.1674 63.3913 84.8271 61.9734 82.5578C60.5555 80.2884 59.2544 78.1085 57.9663 75.948C56.6783 73.7874 55.5138 71.852 54.3232 69.794C53.1325 67.736 52.2083 66.0313 51.3486 64.2549C50.6313 62.835 50.0462 61.3518 49.6009 59.8238C49.3292 58.8661 49.2191 57.8692 49.2753 56.8738C49.3289 56.1322 49.5177 55.406 49.8325 54.7308C50.1818 54.0241 50.6386 53.3753 51.1867 52.8076C51.7506 52.2607 52.4071 51.8179 53.1254 51.4999C53.6938 51.2152 54.3156 51.0539 54.9499 51.0266C55.5717 51.0053 56.1914 51.1012 56.7765 51.3093C57.5529 51.6496 58.2673 52.1154 58.8911 52.6879C59.8731 53.5309 60.7751 54.4623 61.5859 55.4704C62.5605 56.6644 63.6523 58.1158 64.725 59.6643C65.7977 61.2128 66.9356 62.9417 67.9759 64.484C69.0162 66.0263 70.3686 68.0313 71.3959 69.5544C72.6963 71.4822 74.2697 73.815 76.3894 76.9574L77.2866 78.2877C81.5128 84.5533 87.3775 93.248 90.4594 97.8171C92.2409 100.458 93.3261 101.858 93.9692 102.602C96.4508 105.529 98.1847 105.089 99.891 104.022C100.292 103.81 100.669 103.555 101.015 103.263C102.048 102.202 102.517 100.68 101.532 98.1745C100.933 96.8169 100.244 95.5014 99.4683 94.2369C98.7011 93.0995 97.7575 91.4078 96.6777 89.6397C94.7785 86.573 92.6319 83.056 91.1154 80.2641C90.3166 78.8549 89.6347 77.3823 89.0764 75.8612C88.8439 75.184 88.7175 74.4746 88.7014 73.7579C88.6979 73.2107 88.766 72.665 88.904 72.1346C89.228 71.1063 89.8225 70.1822 90.6251 69.459C91.0689 69.0625 91.5646 68.7281 92.0985 68.4652C92.5779 68.2014 93.0917 68.0059 93.6249 67.8845C94.1103 67.7969 94.606 67.7842 95.0945 67.8469C95.6215 67.8881 96.1304 68.0546 96.5785 68.3325C97.6835 69.0553 98.6762 69.9353 99.5254 70.945C101.649 73.2992 104.373 77.0442 106.55 80.0634C107.343 81.2394 108.085 82.3383 108.617 82.8768C109.453 84.0721 110.383 85.1989 111.398 86.2465C113.651 88.4575 115.521 88.1777 117.104 87.1378C118.018 86.5557 118.687 85.6605 118.984 84.622C119.282 83.5834 119.188 82.4739 118.72 81.5039C118.304 80.4482 117.783 79.4373 117.164 78.4862C116.54 77.5608 115.799 76.4619 115.005 75.2859C113.874 73.6087 112.626 71.7579 111.624 70.2735C111.069 69.3608 110.607 68.3949 110.244 67.39C110.059 66.8729 109.967 66.3268 109.974 65.7769C109.969 65.2888 110.065 64.8043 110.255 64.3533C110.453 63.841 110.729 63.3617 111.073 62.9318C111.468 62.4691 111.922 62.0593 112.422 61.7129C112.89 61.398 113.402 61.1564 113.942 60.9965C114.337 60.8939 114.747 60.8644 115.152 60.9093C115.596 60.9439 116.029 61.0609 116.429 61.2545C116.952 61.5033 117.431 61.8331 117.85 62.2317C118.657 62.9771 119.396 63.7928 120.058 64.6692C121.28 66.2294 122.736 68.3046 124.023 70.1293C124.829 71.3245 125.557 72.4042 125.973 73.0211C126.597 73.899 127.288 74.7273 128.039 75.4985C130.149 77.5814 132.111 77.3526 133.681 76.2094C134.453 75.6601 135.03 74.8798 135.328 73.9824C135.626 73.085 135.629 72.1176 135.337 71.2213C135.163 70.5058 134.905 69.8138 134.567 69.1599C134.164 68.5623 133.812 67.7058 133.324 66.8569C133.077 66.4906 132.804 66.0857 132.517 65.4096C132.23 64.7335 132.048 64.4636 131.866 64.0257C131.721 63.6521 131.612 63.2659 131.539 62.8719C131.471 62.4299 131.452 61.9815 131.483 61.5349C131.519 61.1441 131.612 60.7604 131.758 60.3956C131.958 59.9031 132.225 59.4401 132.551 59.0196C132.908 58.5742 133.33 58.1853 133.804 57.866C134.35 57.5097 134.947 57.2391 135.575 57.0636C136.15 56.9251 136.743 56.8854 137.33 56.9462C138.003 57.0286 138.658 57.2221 139.267 57.5187C140.152 57.9544 140.989 58.4803 141.764 59.0882C142.65 59.7913 143.475 60.567 144.231 61.4073C145.186 62.4463 146.284 63.7814 147.72 65.6178C149.156 67.4541 151.002 69.9397 153.101 72.8433C154.987 75.6387 157.158 78.5223 159.29 81.6001C161.966 84.6476 164.508 88.4586 166.83 92.0259Z" fill="white"/>
</svg>
